<?xml version="1.0" standalone="no"?>
<!DOCTYPE svg PUBLIC "-//W3C//DTD SVG 20010904//EN"
 "http://www.w3.org/TR/2001/REC-SVG-20010904/DTD/svg10.dtd">
<svg version="1.0" xmlns="http://www.w3.org/2000/svg"
 width="512.000000pt" height="512.000000pt" viewBox="0 0 512.000000 512.000000"
 preserveAspectRatio="xMidYMid meet">
<metadata>
Created by potrace 1.14, written by Peter Selinger 2001-2017
</metadata>
<g transform="translate(0.000000,512.000000) scale(0.100000,-0.100000)"
fill="#000000" stroke="none">
<path d="M640 4696 c-90 -24 -163 -87 -204 -175 l-21 -46 0 -1915 0 -1915 21
-46 c31 -67 87 -124 152 -156 l57 -28 1915 0 1915 0 57 28 c65 32 121 89 152
156 l21 46 0 1915 0 1915 -28 57 c-32 65 -89 121 -156 152 l-46 21 -1895 2
c-1476 1 -1905 -1 -1940 -11z m3817 -206 c50 -33 48 66 48 -1930 0 -1520 -2
-1872 -13 -1891 -31 -58 102 -54 -1912 -57 -1327 -2 -1866 0 -1893 8 -25 7
-45 22 -57 43 -20 31 -20 66 -20 1895 0 2041 -4 1903 58 1936 40 23 3755 19
3789 -4z"/>
<path d="M2511 4286 c-52 -29 -50 -4 -51 -843 l0 -783 -780 0 c-539 0 -786 -3
-803 -11 -28 -13 -57 -58 -57 -89 0 -31 29 -76 57 -89 17 -8 264 -11 803 -11
l780 0 0 -780 c0 -848 -2 -822 55 -848 51 -23 107 -7 131 39 12 24 14 153 14
809 l0 780 780 0 c583 0 786 3 805 12 47 21 67 82 43 133 -26 57 0 55 -848 55
l-780 0 0 780 c0 583 -3 786 -12 805 -22 48 -88 68 -137 41z"/>
<path d="M3435 4284 c-149 -32 -324 -140 -411 -255 -59 -78 -89 -133 -120
-224 -26 -73 -28 -93 -28 -220 0 -126 2 -148 27 -220 38 -114 91 -199 177
-285 86 -86 171 -139 285 -177 72 -25 94 -27 220 -27 127 0 147 2 220 28 200
69 336 190 425 378 94 199 92 413 -5 613 -76 155 -175 254 -330 330 -147 72
-303 92 -460 59z m295 -210 c214 -60 364 -262 362 -489 -1 -206 -104 -371
-289 -461 -363 -176 -782 130 -725 531 44 310 347 505 652 419z"/>
<path d="M982 4185 c-43 -19 -67 -73 -53 -118 7 -21 90 -111 236 -257 l225
-224 -229 -231 c-143 -144 -231 -240 -235 -257 -19 -81 68 -153 140 -115 16 9
128 115 249 236 l220 221 230 -229 c143 -143 240 -232 257 -236 81 -20 153 69
115 141 -9 16 -115 128 -236 249 l-221 220 229 230 c143 143 232 240 236 257
19 75 -59 145 -131 118 -16 -6 -130 -112 -254 -236 l-225 -224 -220 221 c-191
192 -260 250 -292 249 -4 -1 -23 -7 -41 -15z"/>
<path d="M1385 2234 c-207 -45 -392 -190 -486 -379 -56 -116 -74 -190 -73
-320 0 -133 18 -208 76 -325 60 -120 188 -248 308 -308 117 -58 192 -76 325
-76 130 -1 204 17 320 73 147 73 253 182 326 336 183 389 -14 843 -426 981
-101 34 -263 42 -370 18z m270 -199 c100 -26 165 -63 241 -139 76 -76 113
-141 139 -241 88 -342 -222 -681 -573 -626 -281 43 -480 313 -433 588 50 293
345 490 626 418z"/>
<path d="M3004 2116 c-37 -37 -43 -70 -20 -114 8 -15 114 -126 235 -247 l221
-220 -231 -231 c-209 -209 -231 -234 -236 -270 -10 -76 67 -132 138 -101 19 9
131 112 254 236 l220 221 230 -229 c152 -152 240 -232 259 -237 40 -10 92 18
112 60 11 22 14 44 10 62 -5 19 -85 107 -237 259 l-229 230 221 220 c124 123
227 235 236 254 19 44 9 84 -30 117 -26 22 -38 25 -71 21 -36 -5 -61 -27 -270
-236 l-231 -231 -220 221 c-121 121 -232 227 -247 235 -44 23 -77 17 -114 -20z"/>
</g>
</svg>
